<?xml version="1.0" encoding="UTF-8" standalone="no"?>
<!-- Created with Inkscape (http://www.inkscape.org/) -->

<svg
   width="297mm"
   height="210mm"
   viewBox="0 0 297 210"
   version="1.1"
   id="svg5"
   inkscape:version="1.1 (c68e22c387, 2021-05-23)"
   sodipodi:docname="background.svg"
   xmlns:inkscape="http://www.inkscape.org/namespaces/inkscape"
   xmlns:sodipodi="http://sodipodi.sourceforge.net/DTD/sodipodi-0.dtd"
   xmlns="http://www.w3.org/2000/svg"
   xmlns:svg="http://www.w3.org/2000/svg">
  <sodipodi:namedview
     id="namedview7"
     pagecolor="#ffffff"
     bordercolor="#666666"
     borderopacity="1.0"
     inkscape:pageshadow="2"
     inkscape:pageopacity="0.0"
     inkscape:pagecheckerboard="0"
     inkscape:document-units="mm"
     showgrid="false"
     units="mm"
     inkscape:zoom="0.57370932"
     inkscape:cx="396.54228"
     inkscape:cy="560.38832"
     inkscape:window-width="1920"
     inkscape:window-height="998"
     inkscape:window-x="-11"
     inkscape:window-y="-11"
     inkscape:window-maximized="1"
     inkscape:current-layer="layer1" />
  <defs
     id="defs2">
    <filter
       inkscape:label="Duotone Turbulent"
       inkscape:menu="Overlays"
       inkscape:menu-tooltip="Basic noise fill texture; adjust color in Flood"
       height="1.2593717"
       width="1.1927662"
       y="-0.12968587"
       x="-0.096383099"
       style="color-interpolation-filters:sRGB"
       id="filter893">
      <feGaussianBlur
         stdDeviation="5"
         in="SourceAlpha"
         result="result1"
         id="feGaussianBlur881" />
      <feComposite
         operator="arithmetic"
         k2="3.2"
         k1="-1"
         k4="-2"
         result="result3"
         in2="result1"
         id="feComposite883"
         k3="0" />
      <feColorMatrix
         values="1 0 0 0 0 0 1 0 0 0 0 0 1 0 0 0 0 0 10 0 "
         result="result2"
         id="feColorMatrix885" />
      <feComposite
         result="fbSourceGraphic"
         in="SourceGraphic"
         operator="out"
         in2="result2"
         id="feComposite887" />
      <feBlend
         mode="multiply"
         in="result1"
         in2="fbSourceGraphic"
         result="result91"
         id="feBlend889" />
      <feBlend
         mode="screen"
         in="fbSourceGraphic"
         in2="result91"
         id="feBlend891"
         result="fbSourceGraphic" />
      <feColorMatrix
         result="fbSourceGraphicAlpha"
         in="fbSourceGraphic"
         values="0 0 0 -1 0 0 0 0 -1 0 0 0 0 -1 0 0 0 0 1 0"
         id="feColorMatrix925" />
      <feGaussianBlur
         id="feGaussianBlur927"
         stdDeviation="4"
         result="result8"
         in="fbSourceGraphic" />
      <feTurbulence
         id="feTurbulence929"
         seed="50"
         result="result7"
         type="turbulence"
         numOctaves="7"
         baseFrequency="0.01 0.01" />
      <feColorMatrix
         id="feColorMatrix931"
         result="result5"
         values="1 0 0 0 0 0 1 0 0 0 0 0 1 0 0 0 0 0 1.4 0 " />
      <feComposite
         in2="result8"
         id="feComposite933"
         result="result6"
         in="result5"
         operator="in" />
      <feDisplacementMap
         in2="result6"
         id="feDisplacementMap935"
         in="result5"
         xChannelSelector="A"
         yChannelSelector="A"
         scale="100"
         result="result4" />
      <feFlood
         id="feFlood937"
         flood-opacity="1"
         flood-color="rgb(224,224,224)"
         result="result92" />
      <feComposite
         in2="result4"
         id="feComposite939"
         result="result2"
         operator="atop" />
      <feComposite
         in2="fbSourceGraphic"
         id="feComposite941"
         in="result2"
         operator="atop"
         result="result9" />
      <feBlend
         in2="result9"
         id="feBlend943"
         result="fbSourceGraphic"
         mode="darken" />
      <feGaussianBlur
         id="feGaussianBlur945"
         stdDeviation="5"
         in="fbSourceGraphic"
         result="result0" />
      <feSpecularLighting
         id="feSpecularLighting947"
         in="result0"
         result="result1"
         lighting-color="#ffffff"
         surfaceScale="8"
         specularConstant="0.80000001"
         specularExponent="30">
        <feDistantLight
           id="feDistantLight949"
           elevation="55"
           azimuth="235" />
      </feSpecularLighting>
      <feComposite
         in2="fbSourceGraphic"
         id="feComposite951"
         in="result1"
         result="result2"
         operator="in" />
      <feComposite
         in2="result2"
         id="feComposite953"
         in="fbSourceGraphic"
         result="fbSourceGraphic"
         operator="arithmetic"
         k2="1"
         k3="1"
         k1="0"
         k4="0" />
      <feColorMatrix
         result="fbSourceGraphicAlpha"
         in="fbSourceGraphic"
         values="0 0 0 -1 0 0 0 0 -1 0 0 0 0 -1 0 0 0 0 1 0"
         id="feColorMatrix977" />
      <feGaussianBlur
         id="feGaussianBlur979"
         result="result8"
         stdDeviation="5"
         in="fbSourceGraphic" />
      <feComposite
         in2="fbSourceGraphic"
         id="feComposite981"
         operator="xor"
         result="result22" />
      <feComposite
         in2="result22"
         id="feComposite983"
         k2="1"
         operator="arithmetic"
         result="result20"
         in="result22"
         k1="0"
         k3="0"
         k4="0" />
      <feComposite
         in2="result22"
         id="feComposite985"
         in="result20"
         operator="over"
         result="result6" />
      <feOffset
         id="feOffset987"
         in="result6"
         result="result21" />
      <feDisplacementMap
         in2="result20"
         id="feDisplacementMap989"
         result="result4"
         scale="100"
         yChannelSelector="A"
         xChannelSelector="A"
         in="result21" />
      <feComposite
         in2="fbSourceGraphic"
         id="feComposite991"
         k1="1"
         operator="arithmetic"
         result="fbSourceGraphic"
         k3="0.5"
         in="result4"
         k2="0"
         k4="0" />
      <feComposite
         in2="result4"
         id="feComposite993"
         result="result12"
         operator="in"
         in="fbSourceGraphic" />
      <feComposite
         in2="fbSourceGraphic"
         id="feComposite995"
         operator="in"
         result="result18" />
      <feComposite
         in2="fbSourceGraphic"
         id="feComposite997"
         result="fbSourceGraphic"
         operator="in"
         in="result18" />
      <feColorMatrix
         result="fbSourceGraphicAlpha"
         in="fbSourceGraphic"
         values="0 0 0 -1 0 0 0 0 -1 0 0 0 0 -1 0 0 0 0 1 0"
         id="feColorMatrix1003" />
      <feColorMatrix
         id="feColorMatrix1005"
         values="1 0 0 0 0 0 1 0 0 0 0 0 1 0 0 0 0 0 1000 -500 "
         in="fbSourceGraphic"
         result="fbSourceGraphic" />
      <feColorMatrix
         result="fbSourceGraphicAlpha"
         in="fbSourceGraphic"
         values="0 0 0 -1 0 0 0 0 -1 0 0 0 0 -1 0 0 0 0 1 0"
         id="feColorMatrix1099" />
      <feGaussianBlur
         id="feGaussianBlur1101"
         stdDeviation="5"
         result="result6"
         in="fbSourceGraphic" />
      <feComposite
         in2="result6"
         id="feComposite1103"
         result="result8"
         in="fbSourceGraphic"
         operator="atop" />
      <feComposite
         in2="fbSourceGraphicAlpha"
         id="feComposite1105"
         result="result9"
         operator="over"
         in="result8" />
      <feColorMatrix
         id="feColorMatrix1107"
         values="1 0 0 0 0 0 1 0 0 0 0 0 1 0 0 0 0 0 1 0 "
         result="result10" />
      <feBlend
         in2="result6"
         id="feBlend1109"
         in="result10"
         mode="normal"
         result="fbSourceGraphic" />
      <feColorMatrix
         result="fbSourceGraphicAlpha"
         in="fbSourceGraphic"
         values="0 0 0 -1 0 0 0 0 -1 0 0 0 0 -1 0 0 0 0 1 0"
         id="feColorMatrix1639" />
      <feColorMatrix
         id="feColorMatrix1641"
         values="1 0 0 0 0 0 1 0 0 0 0 0 1 0 0 0 0 0 1 1 "
         in="fbSourceGraphic" />
      <feColorMatrix
         id="feColorMatrix1643"
         type="saturate"
         values="0"
         result="result1" />
      <feFlood
         id="feFlood1645"
         flood-color="rgb(9,111,151)"
         result="result2" />
      <feColorMatrix
         id="feColorMatrix1647"
         type="hueRotate"
         values="0"
         result="result3" />
      <feBlend
         in2="result1"
         id="feBlend1649"
         mode="screen"
         result="result2" />
      <feBlend
         in2="result2"
         id="feBlend1651"
         result="result4"
         mode="multiply" />
      <feTurbulence
         id="feTurbulence1653"
         numOctaves="5"
         baseFrequency="0.035"
         type="fractalNoise"
         result="result7" />
      <feColorMatrix
         id="feColorMatrix1655"
         result="result0"
         values="1 0 0 0 0 0 1 0 0 0 0 0 1 0 0 0 0 0 3 -1 " />
      <feFlood
         id="feFlood1657"
         flood-opacity="1"
         flood-color="rgb(200,57,93)"
         result="result1" />
      <feBlend
         in2="result4"
         id="feBlend1659"
         mode="lighten"
         in="result1"
         result="result5" />
      <feComposite
         in2="result0"
         id="feComposite1661"
         operator="out"
         result="result6" />
      <feComposite
         in2="result4"
         id="feComposite1663"
         operator="atop"
         result="result8" />
      <feComposite
         in2="fbSourceGraphic"
         id="feComposite1665"
         operator="in" />
    </filter>
  </defs>
  <g
     inkscape:label="Layer 1"
     inkscape:groupmode="layer"
     id="layer1">
    <rect
       style="fill:#ff55dd;stroke-width:0.0306306"
       id="rect1078"
       width="297.46118"
       height="209.39001"
       x="0"
       y="0.44694102" />
    <path
       id="rect863"
       style="color:#000000;font-style:normal;font-variant:normal;font-weight:normal;font-stretch:normal;font-size:medium;line-height:normal;font-family:sans-serif;font-variant-ligatures:normal;font-variant-position:normal;font-variant-caps:normal;font-variant-numeric:normal;font-variant-alternates:normal;font-variant-east-asian:normal;font-feature-settings:normal;font-variation-settings:normal;text-indent:0;text-align:start;text-decoration:none;text-decoration-line:none;text-decoration-style:solid;text-decoration-color:#000000;letter-spacing:normal;word-spacing:normal;text-transform:none;writing-mode:lr-tb;direction:ltr;text-orientation:mixed;dominant-baseline:auto;baseline-shift:baseline;text-anchor:start;white-space:normal;shape-padding:0;shape-margin:0;inline-size:0;clip-rule:nonzero;display:inline;overflow:visible;visibility:visible;isolation:auto;mix-blend-mode:normal;color-interpolation:sRGB;color-interpolation-filters:linearRGB;solid-color:#000000;solid-opacity:1;vector-effect:none;fill:#552200;fill-opacity:1;fill-rule:evenodd;stroke:none;stroke-width:3;stroke-linecap:round;stroke-linejoin:miter;stroke-miterlimit:4;stroke-dasharray:none;stroke-dashoffset:0;stroke-opacity:1;filter:url(#filter893);color-rendering:auto;image-rendering:auto;shape-rendering:auto;text-rendering:auto;enable-background:accumulate;stop-color:#000000"
       d="m 152.82422,197.06641 c -35.43725,21.38528 51.64791,31.80152 17.4829,-0.69937 -5.92952,-0.61478 -11.61335,3.12883 -17.4829,0.69937 z m 37,0.72656 c -22.61487,30.14848 45.06927,1.54737 6.29867,0.13467 -2.09792,0.1583 -4.19978,-0.10933 -6.29867,-0.13467 z m -71.4961,0.47851 c -37.909329,11.63852 24.23634,51.66611 14.08904,14.80702 -4.26964,-5.36821 -10.32091,-8.99046 -14.08904,-14.80702 z m 109.83985,1.11914 c -10.18935,22.01498 31.60088,-8.28818 0,0 z m -130.734376,0.97266 c -29.882848,-20.93516 -47.631321,48.07737 -9.219211,22.50621 5.654978,-6.16251 7.700186,-14.53793 9.219211,-22.50621 z m 226.058596,2.76563 c -30.09548,13.79798 32.38857,17.53336 5.65267,0.21284 z m 24.45117,1.36328 c -6.78292,15.61909 16.93825,8.74019 0,0 z m 29.3125,1.59375 c 2.8338,3.40071 2.82116,-4.79845 0,0 z m 65.9707,2.72656 c -24.75138,32.13736 -2.07561,83.03784 35.3347,93.14148 36.69002,38.64235 66.29294,-42.18445 26.93562,-59.90979 -16.22686,-17.58666 -38.2902,-30.42293 -62.27032,-33.23169 z m 69.69532,0.49805 c -51.45283,-13.71151 15.62665,47.68083 0,0 z M 275.69727,214.25 c -18.6415,11.05212 21.80924,17.61745 0,0 z m 129.15625,0.39258 c -23.01622,-4.67195 -15.84386,22.63584 0,0 z m 20.35546,1.13867 c -23.34663,5.68178 -42.49352,60.27884 -4.63081,53.82508 6.89847,-17.38949 -9.53492,-38.41316 4.63081,-53.82508 z m -133.40234,0.58594 c -4.73104,8.52851 7.66694,-0.16064 0,0 z m -259.249999,0.6914 -0.36087,0.23141 z m 220.808589,1.20118 c -24.5324,21.33516 24.38222,20.36087 0,0 z m -18.51562,3.44335 c -35.88784,-7.34099 -7.04948,34.55071 0,0 z m 138.46875,0.70508 c -3.10943,6.74001 11.89582,17.43362 4.3644,5.35724 z m -13.99024,4.20899 c -37.13475,-9.33044 -2.49234,53.38012 5.78289,13.52596 0.0661,-5.0151 -1.72323,-10.32422 -5.78289,-13.52596 z m -161.41601,2.46875 c -23.06422,-3.70278 -15.38789,13.52417 0,0 z m -199.0175788,6.01953 c 17.9219418,14.67847 20.6633068,-10.32326 0,0 z m 317.4882788,2.97265 c -36.56068,7.65653 26.51056,56.60946 18.67738,17.36197 -5.79183,-6.25689 -13.00807,-10.9796 -18.67738,-17.36197 z m -219.128904,4.49805 c -22.452592,26.10505 -23.564234,94.09203 25.072234,83.7517 30.32395,-8.99411 52.39864,-66.86051 16.56636,-81.33121 -13.64649,-3.48312 -27.88003,0.044 -41.638594,-2.42049 z m -15.277344,1.65625 c -5.837938,19.96068 -56.397931,-1.31847 -32.886443,32.90049 19.240259,30.97253 29.616451,-19.88686 32.886443,-32.90049 z m 187.224608,1.78906 c -44.52812,-20.93337 -36.84326,74.9596 -0.75493,27.29581 5.33235,-7.91734 6.88689,-19.32471 0.75493,-27.29581 z m -92.43945,0.83399 c -16.96823,22.86172 17.89567,19.71388 8.77353,1.09676 l -3.51803,-0.98982 z m 27.40625,1.20703 c -24.39951,11.68167 -14.27874,70.5119 12.79288,37.26726 11.29251,-11.87275 12.10135,-48.31111 -12.79288,-37.26726 z m -170.101564,1.82227 c -7.322648,9.89404 1.537116,8.84008 0,0 z m 258.070314,1.65234 c -0.84117,10.49899 10.23851,10.31193 0,0 z M -5.3632812,253.86719 C -53.837647,241.19144 -31.920564,335.93227 3.0483706,296.58822 10.983533,283.86509 15.627607,256.68669 -5.3632812,253.86719 Z m 379.1914012,9.7832 c -3.52472,-0.60015 1.79893,2.43635 0,0 z m -89.57031,5.4668 c -19.193,23.09568 24.2426,13.47874 0,0 z M 24.75,272.83594 c -11.410329,6.99522 -14.440082,57.99185 -1.45281,25.78273 2.787813,-8.12522 5.720526,-17.54789 1.45281,-25.78273 z m 346.16602,4.27734 c 1.40917,16.67742 16.54172,-3.51294 0,0 z m -16.34571,1.90234 c -33.18067,12.42946 27.94483,12.30797 0,0 z m 38.10938,1.80274 c -8.36214,34.09028 83.70961,30.63344 33.35072,7.14653 -10.49919,-4.57496 -21.93395,-6.78392 -33.35072,-7.14653 z m -226.19727,4.65234 c -13.32721,20.2101 7.8702,22.39679 0,0 z m -126.634764,2.17578 c -23.977749,14.45971 6.201766,72.57731 17.313554,30.14756 1.945124,-12.44493 -5.901516,-25.25922 -17.313554,-30.14756 z m 247.574224,8.67188 c -22.42155,-14.07832 -21.18848,44.53059 -4.81839,14.86237 3.21578,-3.35479 25.47811,-19.07941 4.81839,-14.86237 z m -28.41602,0.68945 c -41.97903,-26.2237 -33.71639,80.81845 -7.08509,27.38598 2.29789,-9.13518 2.76217,-18.85168 7.08509,-27.38598 z m 69.62109,2.42969 c -5.66161,30.59482 43.2364,50.88584 38.2699,9.06184 -10.22491,-10.23555 -25.93326,-4.57169 -38.2699,-9.06184 z m -377.421872,0.17773 c -18.379447,19.81084 -16.510018,69.17405 20.190914,46.5083 35.1360483,-8.6216 1.059008,-47.47842 -20.190914,-46.5083 z m 264.042972,5.125 c -39.00154,-9.75409 -35.29767,89.79683 -2.8071,47.3734 6.33826,-15.04408 3.18765,-31.63008 2.8071,-47.3734 z m 180.53711,6.24805 c 16.34373,27.43737 40.38359,81.11084 78.03571,47.71 24.18589,-17.73094 1.54923,-45.46476 -22.98928,-35.31865 -18.52431,-3.29198 -36.89548,-7.43993 -55.04643,-12.39135 z m -83.85547,1.54102 c -46.17665,3.27974 -30.56992,83.34283 14.07588,62.05343 28.96697,-13.096 -4.56403,-46.95551 -14.07588,-62.05343 z m 67.98828,1.37695 c -20.22371,6.01413 -24.24194,75.11472 0.64698,54.21024 0.36042,-18.06174 1.63127,-36.21661 -0.64698,-54.21024 z m -308.642579,2.85156 c -27.98597,14.58482 16.26936,52.59854 20.843348,18.11799 -5.892057,-7.30132 -15.874478,-9.8963 -20.843348,-18.11799 z m 104.876949,1.52344 c -11.0623,12.13637 -34.36627,51.16877 -5.98744,53.97505 4.37994,-17.51689 10.66456,-35.81565 5.98744,-53.97505 z M 3.8945312,330.70703 c -6.4630092,19.34086 20.8125668,-1.68075 0,0 z m 509.7851588,1.41211 c -1.34491,9.01392 6.78772,-3.13138 0,0 z m -374.22461,0.95508 c -37.38166,3.2727 6.36386,37.7831 0,0 z m 255.56445,1.77148 c -9.4768,17.1741 0.79229,62.8702 26.35974,43.98198 -5.28769,-16.59172 -18.82291,-28.58234 -26.35974,-43.98198 z m 109.41211,7.83008 c -19.75598,21.27778 -80.98221,56.51571 -32.08046,82.13553 34.83663,2.73808 40.06007,-47.67121 38.95036,-73.46065 -1.2774,-3.51883 -3.62202,-6.73179 -6.8699,-8.67488 z m -397.86914,5.88281 c -45.155824,3.57992 34.7166,45.30035 10.62261,8.63831 -3.41105,-3.03631 -7.03537,-5.81729 -10.62261,-8.63831 z M 3.7421875,353 C -9.9321516,362.61324 -1.3214,417.24704 5.840382,378.45267 8.8375082,370.59242 11.687371,359.0267 3.7421875,353 Z m -18.2988285,1.55469 c -36.946637,-9.27054 -62.190373,39.07433 -26.386801,58.53413 12.510955,26.22352 36.7042993,21.58722 24.678503,-8.85096 -0.494727,-16.57693 0.290567,-33.16768 1.708298,-49.68317 z m 38.763672,1.97461 c -10.868848,13.84679 -7.864982,63.49229 8.614993,25.35361 5.205186,-9.06773 9.800519,-30.4505 -8.614993,-25.35361 z m 231.664059,0.93359 c -24.38627,-6.99955 -13.52975,49.70916 -6.07675,13.4996 1.39479,-4.7554 3.62813,-9.21094 6.07675,-13.4996 z m 10.98243,6.97656 c -34.45928,29.56088 59.57573,62.63951 39.80782,20.49527 -13.86591,-5.31628 -30.06713,-8.1574 -39.80782,-20.49527 z m -213.214848,0.29688 c -13.328444,5.11213 7.122271,3.0569 0,0 z m 15.871094,5.68945 c -30.27842,25.40029 -50.122121,63.50324 -51.711587,103.1681 38.495938,-5.38375 34.190745,-71.56905 80.777415,-61.76659 41.324326,-24.53282 -12.720151,-30.53196 -29.065828,-41.40151 z m 147.640624,0.41016 c -10.66598,-2.24028 -3.92151,11.4324 0,0 z m 129.77539,5.84179 c -13.52258,6.62529 12.12857,6.3396 0,0 z m -150.10742,12.79102 c -6.16919,-4.47624 -2.08993,5.81134 0,0 z m 20.48437,0.61719 c -17.83091,7.28 14.87748,6.7632 0,0 z m -286.699214,3.18359 c -8.647857,26.17698 -5.1519,71.66579 27.020003,78.54366 C 1.2230485,458.18053 -65.400194,414.123 -69.396484,393.26953 Z m 404.449214,0.58008 c -35.99508,27.68969 54.18775,23.51178 14.92643,3.55737 -4.59511,-2.55201 -9.9542,-2.31585 -14.92643,-3.55737 z m 97.2793,1.04492 c -29.82251,-17.10066 -53.07398,37.08855 -11.09572,29.92008 25.63586,5.11726 31.69278,-15.35868 11.09572,-29.92008 z m -233.16406,11.05859 c -2.77792,26.11982 48.56516,7.73401 10.55097,2.17189 -3.51758,-0.7211 -7.03409,-1.4474 -10.55097,-2.17189 z m -53.9043,0.0547 c -25.11537,1.3711 -31.81971,73.04725 -2.55298,35.45209 11.05141,-8.55176 24.18207,-30.33619 2.55298,-35.45209 z m 93.80664,8.03516 c -21.78935,36.78742 72.1467,24.78609 26.99535,4.99177 -9.01313,-1.58303 -18.01487,-3.23239 -26.99535,-4.99177 z m -57.56836,8.35937 c -28.31296,27.85225 -32.05503,78.81944 -73.98061,92.47842 22.30662,37.31996 65.8881,-11.09108 94.21929,-19.89024 26.27295,-7.59671 49.12292,-41.54286 12.86535,-53.42546 -9.86905,-8.11559 -20.66897,-15.63074 -33.10403,-19.16272 z m -164.542966,0.1875 c -16.94447972,7.30809 -10.2786116,40.26961 -3.926734,10.02867 1.314858,-3.34056 2.618913,-6.68535 3.926734,-10.02867 z m 98.164066,0.39063 c -33.949424,-5.26097 -61.485661,76.26092 -17.688954,61.51051 11.187144,-18.72634 9.966164,-41.55821 17.688954,-61.51051 z m -31.412112,4.99023 c -23.356856,-2.48989 -14.007619,23.70558 0,0 z m 240.123042,0.74219 c -11.93094,36.19454 61.93615,51.77084 39.11146,7.7434 -10.61536,-10.32764 -26.85226,-1.73902 -39.11146,-7.7434 z m -23.58007,3.67773 c -23.87411,1.32219 -8.34195,40.61204 1.82641,11.1536 1.98462,-3.43351 2.33045,-9.04892 -1.82641,-11.1536 z m 89.16797,7.38086 c 16.12311,18.90689 12.93957,74.83651 46.6527,65.86401 -6.44174,-27.34696 -31.12468,-44.08481 -46.6527,-65.86401 z m 23.27148,3.9336 c 2.90052,27.33661 56.91741,68.38562 58.25006,19.48771 -8.40029,-24.48068 -40.40139,-10.9994 -58.25006,-19.48771 z m 70.57812,0.25195 c -0.20066,4.68738 3.6252,-2.93205 0,0 z m -169.25781,4.99024 c -29.60641,17.42643 43.5867,40.53715 8.83517,10.83665 -2.91864,-3.63364 -5.85929,-7.24969 -8.83517,-10.83665 z m 65.33594,2.58789 c -35.29904,11.9439 16.15939,81.85307 17.49628,37.81137 -5.84966,-12.58225 -14.44233,-24.05569 -17.49628,-37.81137 z m -126.97656,1.8789 c -1.38029,6.75233 6.41891,-3.48893 0,0 z m -109.85352,7.01172 c -13.54926,2.38758 -32.07745,44.16731 -9.60744,18.00226 3.54948,-5.80783 6.68497,-11.8584 9.60744,-18.00226 z m 125.91992,0.76563 c 0.33773,26.49751 31.37199,3.93096 0,0 z m -211.230466,3.9082 c -42.942826,-4.58513 -3.730615,69.30149 12.154433,28.66217 -3.998865,-9.4939 -15.194465,-17.14235 -12.154433,-28.66217 z m -72.705078,4.86719 c -16.013409,13.22026 2.359228,22.3876 0,0 z m -54.783203,0.89258 c 0.130636,41.53213 -6.152116,88.18293 20.621094,123.59179 16.339828,-32.48011 33.8001,-82.05516 -1.484166,-108.595 -6.494493,-4.8364 -13.668147,-8.91533 -19.136928,-14.99679 z m 320.791017,5.54687 c -36.8375,30.37137 -79.27101,54.67741 -125.47914,67.38539 7.06806,35.70428 93.4383,46.93427 65.98958,-0.65101 6.02179,-15.89963 30.48733,20.16228 44.31796,-2.56457 17.72823,-13.4845 36.86586,-46.07065 15.1716,-64.16981 z m 47.97266,0.8125 c -16.15431,32.51688 68.17364,35.46468 23.7598,11.4057 -8.32225,-2.74804 -17.36561,-4.98755 -23.7598,-11.4057 z m -13.6504,21.07813 c 9.37398,14.1931 19.63061,11.27224 0,0 z m -311.880855,3.29101 c -5.883502,4.09136 5.874227,1.40417 0,0 z m 382.832035,3.0625 c -42.65486,21.39786 60.9013,61.95315 17.92514,20.24189 -5.45477,-7.17927 -11.19664,-14.20584 -17.92514,-20.24189 z m -357.9960975,4.79883 c -17.4838445,15.56509 8.9779843,20.43865 0,0 z m 278.6640575,0.38672 c -12.05489,10.27724 -41.0447,50.13924 -5.09006,28.33151 11.96021,-3.9371 23.88667,-23.66008 5.09006,-28.33151 z m -260.615229,2.91601 c -17.490255,29.35793 28.882386,57.02828 54.485676,48.29758 25.61194,-30.93194 -47.640206,7.58363 -15.616818,-22.12393 5.63024,-18.13649 -30.730469,-15.2079 -38.868858,-26.17365 z m 367.435549,2.30469 c -2.13627,17.26932 45.06025,37.57632 25.52188,9.51239 -7.76772,-5.06448 -17.3809,-5.31579 -25.52188,-9.51239 z M 71.6875,516.29492 c -12.676397,-8.66483 -5.670852,14.03894 0,0 z m 242.79688,4.91406 c -23.10624,6.99712 18.77718,8.94762 0,0 z m -230.035161,1.56055 c -10.421901,6.07062 11.323868,4.00931 0,0 z m 204.580081,1.05274 0.60489,1.70903 8e-4,0.002 -0.60489,-1.70903 z m 42.72461,9.94921 c -22.85175,6.91587 17.74299,10.67087 0,0 z M 300,536.06445 c -12.50686,7.50147 -61.41678,31.53463 -20.77286,20.86343 10.05666,-1.81353 23.65444,-8.2743 20.77286,-20.86343 z m -312.857422,0.65039 c -4.262691,17.68398 -18.387935,37.39626 -18.588318,53.23723 6.880532,-17.44368 17.890082,-33.93996 18.588318,-53.23723 z m 354.617192,6.19532 0.42187,0.15625 z m -241.67188,1.44726 c 1.92952,4.0836 3.36609,-0.62262 0,0 z m -98.8730462,3.30664 c -22.5773218,25.76949 -28.0354378,83.6879 20.6712252,76.4879 35.10599,12.05095 77.112013,25.21984 108.126111,-3.65429 17.65428,-5.75901 25.36713,-26.56374 -0.532,-23.47753 C 84.187665,588.87695 39.161118,574.34751 1.2148438,547.66406 Z m 355.7832062,0.46875 c -16.413,21.66939 45.74062,10.32778 8.2288,4.09811 -2.74688,-1.35811 -5.48726,-2.72925 -8.2288,-4.09811 z m -19.0918,5.97852 c -1.60763,11.1271 10.61927,-2.81951 0,0 z m -244.498047,2.47851 c -19.786991,34.02872 84.437637,32.74426 28.717467,16.56256 -10.08113,-4.55316 -19.93524,-9.7858 -28.717467,-16.56256 z m 229.003907,3.98243 c -19.46003,4.26719 -24.89815,18.48331 -1.01386,10.53537 8.55302,-0.34683 10.04783,-9.90523 1.01386,-10.53537 z m 48.56445,14.58984 c 3.48047,4.64518 3.65512,-6.14252 0,0 z m -27.45703,2.78516 c -22.82455,19.0059 -87.30432,-6.08897 -83.25102,33.99216 27.61257,17.99873 57.51101,-8.61947 82.03117,-20.91835 10.5685,-3.55804 16.24435,-10.14205 1.21985,-13.07381 z m -119.41601,21.625 c -27.98675,15.68974 -63.79105,17.93332 -87.32752,40.87563 33.97282,-1.34976 89.11094,-2.17196 108.70291,-16.6481 -7.39827,-7.82582 -11.78299,-18.5837 -21.37539,-24.22753 z"
       transform="matrix(0.37337356,0,0,0.37337356,68.566004,-51.149528)" />
  </g>
</svg>
