<?xml version="1.0" encoding="UTF-8" standalone="no"?>
<svg
   width="39.733433"
   height="46.672119"
   viewBox="0 0 10.512805 12.348665"
   version="1.1"
   id="svg5"
   inkscape:version="1.1 (c68e22c387, 2021-05-23)"
   sodipodi:docname="Shell.svg"
   inkscape:export-filename="C:\Users\K.S.S\Desktop\ShellRaiser.png"
   inkscape:export-xdpi="96"
   inkscape:export-ydpi="96"
   xmlns:inkscape="http://www.inkscape.org/namespaces/inkscape"
   xmlns:sodipodi="http://sodipodi.sourceforge.net/DTD/sodipodi-0.dtd"
   xmlns:xlink="http://www.w3.org/1999/xlink"
   xmlns="http://www.w3.org/2000/svg"
   xmlns:svg="http://www.w3.org/2000/svg"
   xmlns:rdf="http://www.w3.org/1999/02/22-rdf-syntax-ns#"
   xmlns:cc="http://creativecommons.org/ns#"
   xmlns:dc="http://purl.org/dc/elements/1.1/">
  <metadata
     id="metadata29">
    <rdf:RDF>
      <cc:Work
         rdf:about="">
        <dc:format>image/svg+xml</dc:format>
        <dc:type
           rdf:resource="http://purl.org/dc/dcmitype/StillImage" />
      </cc:Work>
    </rdf:RDF>
  </metadata>
  <sodipodi:namedview
     id="namedview7"
     pagecolor="#414141"
     bordercolor="#666666"
     borderopacity="1.0"
     inkscape:pageshadow="2"
     inkscape:pageopacity="0"
     inkscape:pagecheckerboard="0"
     inkscape:document-units="mm"
     showgrid="false"
     inkscape:zoom="9.6666667"
     inkscape:cx="10.603448"
     inkscape:cy="16.603448"
     inkscape:window-width="1920"
     inkscape:window-height="998"
     inkscape:window-x="-11"
     inkscape:window-y="-11"
     inkscape:window-maximized="1"
     inkscape:current-layer="layer1"
     inkscape:document-rotation="0"
     units="px"
     fit-margin-top="0"
     fit-margin-left="0"
     fit-margin-right="0"
     fit-margin-bottom="0" />
  <defs
     id="defs2">
    <linearGradient
       id="linearGradient3263"
       inkscape:swatch="solid">
      <stop
         style="stop-color:#020202;stop-opacity:1;"
         offset="0"
         id="stop3261" />
    </linearGradient>
    <linearGradient
       inkscape:collect="always"
       xlink:href="#linearGradient553"
       id="linearGradient3387"
       x1="6.5983047"
       y1="12.553546"
       x2="6.4926934"
       y2="-0.37260208"
       gradientUnits="userSpaceOnUse"
       gradientTransform="matrix(0.95424919,0,0,0.95424919,2.7169735,2.3226666)" />
    <linearGradient
       inkscape:collect="always"
       id="linearGradient553">
      <stop
         style="stop-color:#ffffff;stop-opacity:1"
         offset="0"
         id="stop549" />
      <stop
         style="stop-color:#ffffff;stop-opacity:1"
         offset="1"
         id="stop551" />
    </linearGradient>
    <linearGradient
       inkscape:collect="always"
       xlink:href="#linearGradient553"
       id="linearGradient3397"
       x1="6.5631061"
       y1="12.70881"
       x2="6.4570513"
       y2="-0.27163997"
       gradientUnits="userSpaceOnUse"
       gradientTransform="matrix(0.95025723,0,0,0.95025723,0.35689492,0.31775361)" />
    <linearGradient
       inkscape:collect="always"
       xlink:href="#linearGradient553"
       id="linearGradient3395"
       x1="6.6259604"
       y1="12.394392"
       x2="6.5251808"
       y2="0.059625771"
       gradientUnits="userSpaceOnUse"
       gradientTransform="translate(2.3874401,1.9074856)" />
    <linearGradient
       inkscape:collect="always"
       xlink:href="#linearGradient553"
       id="linearGradient3393"
       x1="6.3176804"
       y1="12.913017"
       x2="6.2100725"
       y2="-0.25747839"
       gradientUnits="userSpaceOnUse"
       gradientTransform="matrix(0.9365453,0,0,0.9365453,3.0966067,2.2082516)" />
    <linearGradient
       inkscape:collect="always"
       xlink:href="#linearGradient553"
       id="linearGradient3385"
       x1="7.0519104"
       y1="13.426145"
       x2="6.9403043"
       y2="-0.23371692"
       gradientUnits="userSpaceOnUse"
       gradientTransform="matrix(0.90299351,0,0,0.90299351,2.6455711,2.1781562)" />
    <linearGradient
       inkscape:collect="always"
       xlink:href="#linearGradient553"
       id="linearGradient3383"
       x1="6.7504091"
       y1="12.748768"
       x2="6.6429029"
       y2="-0.4093259"
       gradientUnits="userSpaceOnUse"
       gradientTransform="matrix(0.93742805,0,0,0.93742805,2.6853774,2.3508249)" />
    <linearGradient
       inkscape:collect="always"
       xlink:href="#linearGradient553"
       id="linearGradient3391"
       x1="6.3814983"
       y1="12.699507"
       x2="6.2742271"
       y2="-0.42987353"
       gradientUnits="userSpaceOnUse"
       gradientTransform="matrix(0.93947821,0,0,0.93947821,3.0181216,2.3709682)" />
  </defs>
  <g
     inkscape:label="Layer 1"
     inkscape:groupmode="layer"
     id="layer1"
     transform="translate(-3.5744521,-1.9945429)">
    <path
       sodipodi:type="star"
       style="fill:url(#linearGradient3397);fill-opacity:1;fill-rule:evenodd;stroke:#343a40;stroke-width:0.401;stroke-miterlimit:4;stroke-dasharray:none;stroke-opacity:1;paint-order:markers stroke fill"
       id="path43"
       inkscape:flatsided="true"
       sodipodi:sides="6"
       sodipodi:cx="6.3499999"
       sodipodi:cy="6.3499999"
       sodipodi:r1="1.8986048"
       sodipodi:r2="1.6442397"
       sodipodi:arg1="0"
       sodipodi:arg2="0.52359878"
       inkscape:rounded="0.15"
       inkscape:randomized="0"
       d="m 8.2486047,6.3499999 c 0,0.2847907 -0.7026664,1.5018446 -0.9493024,1.64424 -0.246636,0.1423953 -1.6519688,0.1423953 -1.8986048,0 -0.246636,-0.1423954 -0.9493023,-1.3594493 -0.9493023,-1.64424 0,-0.2847907 0.7026663,-1.5018446 0.9493023,-1.6442399 0.246636,-0.1423954 1.6519688,-0.1423954 1.8986048,0 0.246636,0.1423953 0.9493024,1.3594492 0.9493024,1.6442399 z"
       transform="translate(2.4198663,1.9074856)" />
    <path
       style="color:#000000;fill:url(#linearGradient3395);fill-opacity:1;fill-rule:evenodd;stroke:#343a40;stroke-width:0.401;stroke-miterlimit:4;stroke-dasharray:none;paint-order:markers stroke fill"
       d="M 9.9152048,5.426959 C 9.4233382,5.7301262 8.0430429,5.7463556 7.6678348,5.4759465 7.2926266,5.2055395 6.3710133,3.7675663 6.5269576,3.3464788 6.6829016,2.9253916 8.1926504,2.1923393 8.7697395,2.1950524 9.345357,2.1977562 10.878615,2.9697159 11.014127,3.3970825 11.149639,3.824449 10.407072,5.1237897 9.9152048,5.4269563 Z"
       id="path298"
       sodipodi:nodetypes="ssssss" />
    <path
       style="color:#000000;fill:url(#linearGradient3393);fill-opacity:1;fill-rule:evenodd;stroke:#343a40;stroke-width:0.401;stroke-miterlimit:4;stroke-dasharray:none;paint-order:markers stroke fill"
       d="M 11.888767,7.7479101 C 11.433729,7.4741625 10.863876,6.3570588 10.941823,5.938498 c 0.07795,-0.4185609 0.925028,-1.7701666 1.344642,-1.8192406 0.419612,-0.04907 1.055688,1.1227161 1.28589,1.5937378 0.229616,0.4698217 0.478366,1.94743 0.170857,2.2364447 -0.307509,0.2890133 -1.399406,0.072219 -1.854445,-0.2015298 z"
       id="path298-62"
       sodipodi:nodetypes="ssssss" />
    <path
       style="color:#000000;fill:url(#linearGradient3391);fill-opacity:1;fill-rule:evenodd;stroke:#343a40;stroke-width:0.401;stroke-miterlimit:4;stroke-dasharray:none;paint-order:markers stroke fill"
       d="m 10.773065,10.7604 c -0.140382,-0.494482 0.541928,-1.5562739 0.918866,-1.7182577 0.376938,-0.1619827 1.801534,-0.097575 2.072916,0.2088994 0.271383,0.3064742 -0.145286,1.4280453 -0.393508,1.8624103 -0.247587,0.433258 -1.110557,1.597076 -1.438084,1.386377 -0.300219,-0.193134 -1.041261,-1.320513 -1.16019,-1.739429 z"
       id="path298-62-6"
       sodipodi:nodetypes="ssssss" />
    <path
       style="color:#000000;fill:url(#linearGradient3387);fill-opacity:1;fill-rule:evenodd;stroke:#343a40;stroke-width:0.401;stroke-miterlimit:4;stroke-dasharray:none;paint-order:markers stroke fill"
       d="m 9.8270402,11.18979 c -0.4540045,-0.261759 -1.7280486,-0.275771 -2.0743744,-0.0423 -0.3463259,0.233474 -1.196996,1.475044 -1.053056,1.838616 0.1439398,0.363573 1.5518755,1.158938 2.0845421,1.156595 C 9.315461,14.140401 10.71629,13.31141 10.84137,12.942415 10.966451,12.57342 10.281045,11.451548 9.8270402,11.18979 Z"
       id="path298-6"
       sodipodi:nodetypes="ssssss" />
    <path
       style="color:#000000;fill:url(#linearGradient3385);fill-opacity:1;fill-rule:evenodd;stroke:#343a40;stroke-width:0.401;stroke-miterlimit:4;stroke-dasharray:none;paint-order:markers stroke fill"
       d="M 5.6633031,7.5027881 C 6.09337,7.2440633 6.6319503,6.1882638 6.5582808,5.7926718 6.4846104,5.3970805 5.6840153,4.1196486 5.2874304,4.0732678 4.890845,4.0268906 4.2896767,5.134371 4.0721073,5.5795441 3.8550926,6.023583 3.6199923,7.4201044 3.9106269,7.6932578 4.2012605,7.9664115 5.2332364,7.7615127 5.6633031,7.5027881 Z"
       id="path298-62-7"
       sodipodi:nodetypes="ssssss" />
    <path
       style="color:#000000;fill:url(#linearGradient3383);fill-opacity:1;fill-rule:evenodd;stroke:#343a40;stroke-width:0.401;stroke-miterlimit:4;stroke-dasharray:none;paint-order:markers stroke fill"
       d="M 6.8341717,10.736677 C 6.9698407,10.25879 6.3104299,9.2326313 5.9461419,9.0760837 5.5818525,8.919537 4.2050661,8.9817835 3.9427904,9.2779721 3.6805153,9.5741617 4.083202,10.658094 4.3230931,11.077882 4.5623718,11.496599 5.3963815,12.62136 5.7129159,12.417733 6.0030594,12.23108 6.7192335,11.141536 6.8341717,10.736677 Z"
       id="path298-62-6-5"
       sodipodi:nodetypes="ssssss" />
  </g>
</svg>
